<svg xmlns="http://www.w3.org/2000/svg" viewBox="0 0 144 144"> <defs> <style>.cls-1{fill:#fff;}.cls-1,.cls-2{stroke:#000;stroke-linecap:round;stroke-linejoin:round;stroke-width:2px;}.cls-2{fill:none;}.cls-3{fill:#6b20ce;opacity:0.4;}</style> </defs> <title>Customer Profile copy</title> <g id="Layer_2"> <circle class="cls-1" cx="107.49" cy="42.31" r="16.13"></circle> <line class="cls-1" x1="107.49" y1="35.84" x2="107.49" y2="48.79"></line> <line class="cls-1" x1="113.97" y1="42.31" x2="101.01" y2="42.31"></line> <path class="cls-1" d="M44.76,73.85a13,13,0,0,0,10-8.64c1.26-3.51,1.2-7.33,2.37-10.85,2.07-6.18,6.84-11,13.9-11"></path> <path class="cls-1" d="M64.45,88.1a8.1,8.1,0,0,0,.35-2.49"></path> <path class="cls-1" d="M49.92,98.76C57,89.43,64.45,88.1,64.45,88.1s2.36,4.69,3.78,5.62h0A4.15,4.15,0,0,0,75,92.43l1.8-4.14"></path> <path class="cls-1" d="M81.88,57.14a10.27,10.27,0,0,0-7.34,2.63"></path> <path class="cls-2" d="M60,64.42c.71-3,2.69-5.65,5.82-6.11a7.28,7.28,0,0,0,3.75-1.8c1.17-1.08,1.35-2.54,2.18-3.85,1.67-2.64,4.72-2.7,7.5-2.5l1.48.1A3.7,3.7,0,0,1,84,52.93l.4,1.41A21.2,21.2,0,0,1,86,59.89L89.86,66l-3.07,1,.15,1.36c.42,3.66.76,8.1-5.46,8-1.73,0-6.13,1.37-6.44,5.53l1.72,6.34a31.37,31.37,0,0,1,4.31.12A11.84,11.84,0,0,1,91.4,97.18c.06.25.13.51.2.77"></path> <path class="cls-1" d="M82.05,62.73a1.88,1.88,0,0,0-3.76,0"></path> <path class="cls-1" d="M81.88,71.76s-1.88.73-3.67-1.59"></path> <path class="cls-2" d="M109.7,64a38.84,38.84,0,0,1,.84,8,38.39,38.39,0,0,1-8.65,24.34"></path> <path class="cls-2" d="M42.26,96.52A38.56,38.56,0,0,1,85.19,35.77"></path> <rect class="cls-1" x="27.65" y="102.95" width="88.71" height="23.58" rx="5.36" ry="5.36"></rect> <path d="M57.16,118.48a.77.77,0,0,1-.75.79.76.76,0,0,1-.58-.24l-3.41-3.74-.83.88v2.27a.82.82,0,1,1-1.64,0v-7.86a.82.82,0,1,1,1.64,0v3.74L55.53,110a.73.73,0,0,1,.57-.25.77.77,0,0,1,.77.75.69.69,0,0,1-.21.52l-3.14,3.29L57,118A.77.77,0,0,1,57.16,118.48Z"></path> <path d="M64,114.7v3.83a.75.75,0,0,1-.75.74.74.74,0,0,1-.72-.74v-.07a2.88,2.88,0,0,1-2.19.89A2.24,2.24,0,0,1,58,117.11a2.18,2.18,0,0,1,2.35-2.2,2.84,2.84,0,0,1,2.19.87v-1c0-.78-.65-1.26-1.59-1.26a2.66,2.66,0,0,0-1.58.51.68.68,0,0,1-.34.09.59.59,0,0,1-.59-.59.61.61,0,0,1,.26-.47,4.07,4.07,0,0,1,2.49-.8C62.68,112.25,64,112.88,64,114.7Zm-1.47,2.94v-1a2,2,0,0,0-1.62-.7,1.23,1.23,0,1,0,0,2.42A2,2,0,0,0,62.53,117.64Z"></path> <path d="M69,112.25a3.11,3.11,0,0,1,2.14.73.67.67,0,0,1,.24.5.65.65,0,0,1-.66.66.63.63,0,0,1-.43-.15,1.8,1.8,0,0,0-1.22-.44,2.26,2.26,0,0,0,0,4.5,1.84,1.84,0,0,0,1.22-.43.63.63,0,0,1,.42-.16.66.66,0,0,1,.67.66.65.65,0,0,1-.24.5,3.11,3.11,0,0,1-2.14.73,3.55,3.55,0,0,1,0-7.1Z"></path> <path d="M73.27,120.63h.07a.91.91,0,0,0,1-.59l.34-.77-2.41-5.94a.8.8,0,0,1,0-.27.72.72,0,0,1,.71-.73.74.74,0,0,1,.69.47l1.82,4.69,1.82-4.69a.74.74,0,0,1,.69-.47.73.73,0,0,1,.72.73.82.82,0,0,1-.05.28l-2.89,7.06a2.25,2.25,0,0,1-2.32,1.53h-.21a.65.65,0,0,1-.61-.65A.68.68,0,0,1,73.27,120.63Z"></path> <path d="M83.54,118.32v-7.61a.78.78,0,0,1,.86-.87h3.73a2.39,2.39,0,0,1,2.66,2.38,2.11,2.11,0,0,1-1.62,2.15,2.28,2.28,0,0,1,1.8,2.29,2.44,2.44,0,0,1-2.71,2.52H84.4A.77.77,0,0,1,83.54,118.32Zm4.25-4.61a1.22,1.22,0,1,0,0-2.43H85.17v2.43Zm.07,4a1.26,1.26,0,0,0,1.43-1.3,1.29,1.29,0,0,0-1.43-1.29H85.17v2.59Z"></path> <path d="M93.32,117.38a1,1,0,1,1-1,1A1,1,0,0,1,93.32,117.38Z"></path> <path class="cls-1" d="M60.8,68.29c-1.78,4.08-4,7.75-8.28,9.48s-4.1,6.8-2.6,10.33"></path> <path class="cls-2" d="M61.38,55.42c3.54-.5,5-4.46,5-4.47,1.64-4.38,7.57-5.66,11.65-5.81,3-.11,7.89,1.37,8.09,5.14"></path> <path class="cls-1" d="M61.38,76.79a6,6,0,0,1-4.2,3.63c-3.15.67-2,4.2-2,4.2"></path> <path class="cls-1" d="M69.88,61.79S69.09,79.08,62.59,83"></path> <path class="cls-1" d="M65.76,62.27s-.13,5.88-1.81,9.19"></path> <path class="cls-1" d="M81.09,79.43a39,39,0,0,0,.79,4.12"></path> <path class="cls-1" d="M85.19,79.43s-.13,4.06,1.92,6"></path> </g> <g id="Layer_4"> <circle class="cls-3" cx="110.7" cy="39.97" r="16.38"></circle> </g> </svg>