<svg xmlns="http://www.w3.org/2000/svg" viewBox="0 0 144 144"> <defs> <style>.cls-1{fill:#6b20ce;opacity:0.4;}.cls-2{fill:#fff;}.cls-2,.cls-3{stroke:#000;stroke-linecap:round;stroke-linejoin:round;stroke-width:2px;}.cls-3{fill:none;}</style> </defs> <title>Customer Service copy</title> <g id="Layer_2"> <path class="cls-1" d="M125.16,62.74H104.59a11.31,11.31,0,0,0-11.4,10.31,11.07,11.07,0,0,0,3.24,8.61,5.33,5.33,0,0,1,1.18,5.52l-2.48,7.25,13.52-9.54h16.14A11.31,11.31,0,0,0,136.23,74,11.08,11.08,0,0,0,125.16,62.74Z"></path> <path class="cls-2" d="M78.39,56.29,77.25,71.58l4,8.86a2.24,2.24,0,0,1-1.73,3.15L76.32,84l-.25,3.43a9.77,9.77,0,0,1-10.4,9l-2.28-.15a5.4,5.4,0,0,0-5.71,6.12,5.28,5.28,0,0,1,0,1.19l-.43,3.94s17.58,1,30.12,11.39"></path> <path class="cls-2" d="M34.52,87.36c.46,3.48,4,3.75,5.7,8.21A19.4,19.4,0,0,1,42.78,108s-17.57,3.35-23.35,11"></path> <path class="cls-2" d="M60.28,68.9a17,17,0,0,1,7.26-.85"></path> <path class="cls-3" d="M78.39,56.29s-13.58,4.27-24.27,3.43c0,0-1.62,10-6.74,16.54"></path> <path class="cls-2" d="M62.09,76.26a3.67,3.67,0,0,1,7.34,0"></path> <path class="cls-3" d="M36.77,63v-10A13.94,13.94,0,0,1,50.71,39h8"></path> <path class="cls-3" d="M39.84,76.26s1.49,14.79,12.7,14.79"></path> <circle class="cls-2" cx="56.23" cy="91.05" r="3.68"></circle> <path class="cls-2" d="M66.91,92.24a3.69,3.69,0,0,1-3.68-3.69"></path> <path class="cls-3" d="M49.4,43.36S69.87,45.88,77.06,36c0,0,0,8.62-2.34,10.42,0,0,5.2-.29,7.77-3.75,0,0-.72,6.73-2.73,8.3a9.83,9.83,0,0,0,7.66,0s-2.59,8.81-5.94,8.78"></path> <path class="cls-3" d="M32.27,49.17c-3.42,3.48-5.09,9.73-5.67,15.54-.78,7.77.42,14.77,4.76,20a23.36,23.36,0,0,0,4.8-2.89"></path> <path class="cls-2" d="M42.78,108s7.67,9.62,14.52-.41"></path> <path class="cls-3" d="M48.38,49.85s13,1.3,16.12-2"></path> <path class="cls-3" d="M47.38,54s.2,4.56-1.19,6.27"></path> <path class="cls-3" d="M60.28,55.58S70,53.8,73.46,51"></path> <path class="cls-3" d="M121.41,60.29H100.84a11.3,11.3,0,0,0-11.39,10.3,11,11,0,0,0,3.23,8.62,5.33,5.33,0,0,1,1.19,5.52L91.38,92l13.52-9.54H121a11.31,11.31,0,0,0,11.44-10.87A11.06,11.06,0,0,0,121.41,60.29Z"></path> <circle cx="99.47" cy="72.21" r="2.15"></circle> <circle cx="110.95" cy="72.21" r="2.15"></circle> <circle cx="122.43" cy="72.21" r="2.15"></circle> <circle class="cls-2" cx="40.13" cy="71.32" r="7.27"></circle> <path class="cls-3" d="M32.86,55.18s-1.66,6.41-1.59,9.5"></path> </g> </svg>