<svg xmlns="http://www.w3.org/2000/svg" viewBox="0 0 144 144"> <defs> <style>.cls-1{fill:#6b20ce;opacity:0.4;}.cls-2{fill:#fff;}.cls-2,.cls-3{stroke:#000;stroke-linecap:round;stroke-linejoin:round;stroke-width:2px;}.cls-3{fill:none;}</style> </defs> <title>Delivery copy</title> <g id="Layer_2"> <path class="cls-1" d="M120.32,92.08h2.49v-19A1.51,1.51,0,0,0,122,71.7l-16.25-8.39L99.06,41.38a4.92,4.92,0,0,0-4.7-3.49h-62a4.92,4.92,0,0,0-4.92,4.92V92.08h95.77"></path> <line class="cls-2" x1="98.18" y1="94.71" x2="69.08" y2="94.71"></line> <path class="cls-3" d="M32.86,50v-4.6a4.91,4.91,0,0,1,4.91-4.92h62a4.9,4.9,0,0,1,4.7,3.49l6.67,21.92,16.26,8.39a1.53,1.53,0,0,1,.83,1.36v19h-2.49"></path> <polyline class="cls-3" points="37.29 94.71 32.86 94.71 32.86 58.65"></polyline> <circle class="cls-3" cx="52.27" cy="94.71" r="9.09"></circle> <circle class="cls-3" cx="112.31" cy="94.71" r="9.09"></circle> <line class="cls-2" x1="80.53" y1="40.52" x2="80.53" y2="94.71"></line> <polygon class="cls-3" points="86.25 46.27 86.25 71.02 104.07 71.02 99.74 46.27 86.25 46.27"></polygon> <line class="cls-2" x1="80.53" y1="76.25" x2="32.86" y2="76.25"></line> <line class="cls-2" x1="45.47" y1="54.15" x2="12.47" y2="54.15"></line> <line class="cls-2" x1="27.47" y1="62.05" x2="0.12" y2="62.05"></line> <line class="cls-2" x1="27.47" y1="69.94" x2="6.6" y2="69.94"></line> <line class="cls-2" x1="27.47" y1="77.83" x2="17.03" y2="77.83"></line> <line class="cls-2" x1="38.63" y1="103.79" x2="22.25" y2="103.79"></line> <circle class="cls-3" cx="112.31" cy="94.71" r="4.47"></circle> <circle class="cls-3" cx="52.27" cy="94.71" r="4.42"></circle> <line class="cls-2" x1="128.2" y1="77.83" x2="122.42" y2="77.83"></line> <line class="cls-2" x1="128.2" y1="81.6" x2="122.42" y2="81.6"></line> <polyline class="cls-3" points="92.55 49.83 96.25 49.83 97.88 59.3"></polyline> </g> </svg>