<svg xmlns="http://www.w3.org/2000/svg" xmlns:xlink="http://www.w3.org/1999/xlink" width="100%" height="100%" viewBox="0 0 40 20" xml:space="preserve" style="fill-rule:evenodd;clip-rule:evenodd;stroke-linejoin:round;stroke-miterlimit:1.41421;"> <rect x="17.173" y="15.029" width="1.011" height="4.303" style="fill:#333333;fill-rule:nonzero;"></rect> <path d="M16.597,6.341c0,-0.898 0,-1.797 0,-2.695c0,-0.567 -0.241,-0.879 -0.797,-0.972c-0.236,-0.041 -0.49,-0.041 -0.726,-0.002c-0.558,0.091 -0.83,0.43 -0.831,0.986c-0.001,1.863 0,3.725 0,5.588c0,0.384 0.132,0.606 0.507,0.705c0.283,0.076 0.59,0.101 0.884,0.09c0.679,-0.022 0.96,-0.329 0.962,-1.005c0.003,-0.898 0.001,-1.797 0.001,-2.695m-1.473,6.488c-2.004,-0.054 -3.918,-0.84 -5.354,-2.592c-2.094,-2.557 -1.783,-6.129 0.693,-8.383c2.837,-2.583 7.486,-2.451 10.154,0.299c1.255,1.294 1.892,2.858 1.757,4.658c-0.156,2.107 -1.22,3.715 -2.98,4.86c-1.223,0.797 -2.582,1.155 -4.27,1.158" style="fill:#333333;fill-rule:nonzero;"></path> <path d="M26.539,9.975c-0.325,0.488 -0.634,0.952 -0.942,1.417c-0.263,0.397 -0.519,0.8 -0.792,1.191c-0.055,0.079 -0.17,0.162 -0.258,0.162c-1.404,0.009 -2.807,0.005 -4.211,0.003c-0.016,0 -0.031,-0.013 -0.078,-0.034c0.126,-0.207 0.247,-0.412 0.372,-0.614c1.19,-1.926 2.377,-3.852 3.576,-5.771c0.119,-0.19 0.112,-0.314 -0.006,-0.497c-1.193,-1.846 -2.375,-3.698 -3.56,-5.549c-0.039,-0.061 -0.073,-0.125 -0.134,-0.23l0.31,0c1.292,0 2.583,0.005 3.875,-0.005c0.222,-0.002 0.349,0.064 0.465,0.259c0.476,0.803 0.972,1.595 1.484,2.426c0.371,-0.691 0.766,-1.329 1.063,-2.01c0.236,-0.542 0.555,-0.714 1.142,-0.686c1.149,0.055 2.301,0.016 3.453,0.016l0.352,0c-0.402,0.624 -0.774,1.203 -1.148,1.781c-0.882,1.367 -1.763,2.736 -2.651,4.099c-0.097,0.148 -0.089,0.25 0.004,0.395c1.312,2.037 2.617,4.078 3.922,6.118c0.054,0.084 0.105,0.17 0.177,0.289c-0.121,0.008 -0.2,0.016 -0.279,0.016c-1.338,0.001 -2.677,-0.003 -4.015,0.005c-0.189,0.001 -0.305,-0.054 -0.409,-0.217c-0.504,-0.777 -1.019,-1.545 -1.532,-2.317c-0.05,-0.076 -0.107,-0.147 -0.18,-0.247" style="fill:#333333;fill-rule:nonzero;"></path> <path d="M0.003,0.124l8.454,0l0,3.416l-4.655,0l0,1.679l3.987,0l0,3.578l-4.048,0l0,3.933l-3.738,0l0,-12.606Z" style="fill:#333333;fill-rule:nonzero;"></path> <path d="M33.606,0.07l4.007,0c0.629,4.751 1.257,9.489 1.891,14.27c-0.547,0 -1.076,0.007 -1.605,-0.011c-0.061,-0.002 -0.144,-0.144 -0.171,-0.235c-0.452,-1.503 -0.896,-3.006 -1.339,-4.511c-0.896,-3.046 -1.791,-6.093 -2.685,-9.138c-0.034,-0.116 -0.062,-0.234 -0.098,-0.375" style="fill:#333333;fill-rule:nonzero;"></path> <path d="M32.646,1.808c1.517,4.19 3.021,8.341 4.539,12.533c-0.715,0 -1.393,0.005 -2.072,-0.009c-0.075,-0.001 -0.169,-0.1 -0.217,-0.177c-1.118,-1.782 -2.23,-3.567 -3.343,-5.352c-0.535,-0.857 -1.069,-1.714 -1.606,-2.569c-0.074,-0.117 -0.116,-0.207 -0.022,-0.348c0.873,-1.307 1.737,-2.619 2.604,-3.929c0.025,-0.037 0.056,-0.071 0.117,-0.149" style="fill:#333333;fill-rule:nonzero;"></path> <path d="M33.895,14.331l-33.895,0l0,-0.779c0.099,-0.005 0.198,-0.014 0.297,-0.014c10.942,0 21.883,0.001 32.825,-0.006c0.218,0 0.345,0.068 0.441,0.255c0.089,0.173 0.202,0.333 0.332,0.544" style="fill:#333333;fill-rule:nonzero;"></path> <path d="M1.002,16.676c0.069,0.007 0.123,0.017 0.177,0.017c0.905,0.001 1.81,-0.004 2.715,0.004c0.242,0.001 0.34,-0.103 0.343,-0.333c0.002,-0.242 -0.119,-0.318 -0.352,-0.315c-0.737,0.011 -1.474,0.004 -2.212,0.004l-0.671,0l0,0.623Zm-0.004,1.638c1.004,0 1.973,-0.003 2.942,0.003c0.235,0.001 0.379,-0.075 0.38,-0.331c0.001,-0.259 -0.142,-0.327 -0.379,-0.324c-0.896,0.008 -1.791,0.003 -2.686,0.004c-0.082,0 -0.164,0.009 -0.257,0.015l0,0.633Zm3.808,-1.177c0.573,0.567 0.654,1.335 0.156,1.795c-0.19,0.176 -0.485,0.329 -0.735,0.335c-1.374,0.032 -2.749,0.015 -4.123,0.013c-0.027,0 -0.053,-0.011 -0.097,-0.022l0,-4.197l0.304,0c1.196,0 2.394,0.01 3.59,-0.004c0.532,-0.006 0.97,0.138 1.193,0.652c0.226,0.524 0.132,1.004 -0.288,1.428" style="fill:#333333;fill-rule:nonzero;"></path> <path d="M16.486,15.08l0,0.955c-0.11,0.006 -0.217,0.017 -0.324,0.017c-1.058,0.002 -2.115,0.006 -3.172,-0.003c-0.242,-0.002 -0.373,0.065 -0.368,0.328c0.005,0.255 0.146,0.305 0.367,0.303c0.795,-0.008 1.591,-0.005 2.386,-0.002c0.599,0.001 0.992,0.25 1.198,0.753c0.211,0.514 0.106,1.191 -0.293,1.532c-0.18,0.154 -0.439,0.298 -0.666,0.303c-1.243,0.029 -2.487,0.014 -3.753,0.014l0,-0.966l0.283,0c1.057,0 2.114,0.001 3.172,-0.001c0.301,0 0.392,-0.103 0.365,-0.387c-0.018,-0.199 -0.122,-0.266 -0.317,-0.264c-0.805,0.007 -1.609,0.005 -2.414,0.002c-0.627,-0.002 -1.026,-0.261 -1.23,-0.787c-0.21,-0.546 -0.084,-1.173 0.361,-1.532c0.177,-0.144 0.43,-0.267 0.652,-0.272c1.206,-0.025 2.413,-0.012 3.62,-0.011c0.036,0 0.072,0.009 0.133,0.018" style="fill:#333333;fill-rule:nonzero;"></path> <path d="M33.911,15.063l0,0.989l-0.312,0l-3.088,0c-0.376,0 -0.413,0.037 -0.423,0.319c-0.012,0.339 0.216,0.306 0.436,0.306c0.768,-0.002 1.535,-0.003 2.303,0c0.613,0.001 1.001,0.253 1.207,0.777c0.211,0.538 0.087,1.196 -0.332,1.543c-0.164,0.135 -0.393,0.263 -0.596,0.268c-1.15,0.027 -2.302,0.017 -3.453,0.019c-0.102,0.001 -0.204,0 -0.331,0l0,-0.97l0.288,0c1.057,0 2.115,-0.004 3.173,0.002c0.246,0.002 0.358,-0.083 0.353,-0.345c-0.005,-0.233 -0.101,-0.311 -0.325,-0.309c-0.795,0.006 -1.591,-0.008 -2.386,0.006c-0.567,0.011 -0.994,-0.206 -1.217,-0.724c-0.232,-0.541 -0.176,-1.08 0.243,-1.511c0.17,-0.175 0.44,-0.348 0.669,-0.353c1.253,-0.035 2.506,-0.017 3.791,-0.017" style="fill:#333333;fill-rule:nonzero;"></path> <path d="M34.882,19.259l0,-0.944l0.625,0c0.945,0 1.89,0.001 2.835,-0.001c0.297,-0.001 0.391,-0.113 0.362,-0.396c-0.021,-0.205 -0.143,-0.256 -0.328,-0.255c-0.805,0.005 -1.609,0.004 -2.413,0.001c-0.62,-0.002 -1.036,-0.273 -1.224,-0.793c-0.203,-0.56 -0.058,-1.211 0.391,-1.554c0.168,-0.13 0.401,-0.241 0.607,-0.245c1.215,-0.021 2.432,-0.009 3.647,-0.007c0.026,0 0.052,0.013 0.092,0.025l0,0.948c-0.114,0.005 -0.221,0.014 -0.329,0.014c-1.048,0.001 -2.096,0.005 -3.143,-0.002c-0.224,-0.002 -0.363,0.052 -0.365,0.304c-0.002,0.257 0.126,0.331 0.37,0.327c0.795,-0.011 1.591,-0.005 2.386,-0.004c0.602,0.002 1.007,0.267 1.202,0.783c0.207,0.55 0.069,1.233 -0.365,1.564c-0.175,0.133 -0.419,0.243 -0.634,0.248c-1.197,0.023 -2.394,0.011 -3.591,0.01c-0.036,0 -0.071,-0.012 -0.125,-0.023" style="fill:#333333;fill-rule:nonzero;"></path> <path d="M28.429,18.31l0,0.96l-4.444,0l0,-4.189l4.457,0l0,0.964l-3.499,0l0,0.622l3.271,0l0,0.999l-3.269,0l0,0.644l3.484,0Z" style="fill:#333333;fill-rule:nonzero;"></path> <path d="M22.333,17.886l0,-2.807l0.957,0l0,4.201c-0.302,0 -0.608,0.011 -0.911,-0.008c-0.074,-0.004 -0.15,-0.1 -0.21,-0.167c-0.711,-0.794 -1.418,-1.592 -2.127,-2.388c-0.06,-0.068 -0.124,-0.132 -0.227,-0.241l0,2.783l-0.985,0l0,-4.195c0.3,0 0.606,-0.014 0.909,0.009c0.082,0.005 0.167,0.106 0.233,0.179c0.714,0.792 1.424,1.587 2.135,2.381c0.056,0.063 0.111,0.124 0.226,0.253" style="fill:#333333;fill-rule:nonzero;"></path> <path d="M5.831,15.076l0.961,0l0,0.484c0,0.787 -0.003,1.573 0.001,2.36c0.002,0.324 0.077,0.392 0.4,0.393c0.796,0.002 1.591,0.001 2.387,0c0.364,0 0.427,-0.057 0.428,-0.42c0.003,-0.833 0.001,-1.666 0.001,-2.499l0,-0.318l0.968,0c0.007,0.065 0.021,0.136 0.021,0.206c0.002,0.89 0.002,1.778 0.001,2.668c-0.001,0.411 -0.112,0.8 -0.444,1.048c-0.203,0.151 -0.485,0.265 -0.736,0.273c-0.935,0.033 -1.871,0.017 -2.807,0.012c-0.612,-0.003 -1.144,-0.423 -1.169,-1.027c-0.043,-1.054 -0.012,-2.11 -0.012,-3.18" style="fill:#333333;fill-rule:nonzero;"></path> </svg>