<svg xmlns="http://www.w3.org/2000/svg" xmlns:xlink="http://www.w3.org/1999/xlink" width="100%" height="100%" viewBox="0 0 135 20" xml:space="preserve" style="fill-rule:evenodd;clip-rule:evenodd;stroke-linejoin:round;stroke-miterlimit:1.41421;"> <path d="M63.714,5.392c0,2.696 -0.271,11.054 -0.271,11.054c0,1.617 0.54,2.336 2.068,2.336l0,0.718l-6.022,0l0,-0.718c1.529,0 2.337,-0.719 2.337,-2.336l0.539,-13.66c-0.449,-1.079 -0.898,-1.438 -2.066,-1.528l0,-0.629l4.583,0l4.853,12.761l4.942,-12.761l4.134,0l0,0.629c-1.168,0 -1.797,0.539 -1.797,1.798l0.539,13.209c0,1.978 0.359,2.517 1.976,2.517l0,0.718l-6.919,0l0,-0.718c1.348,0 1.977,-0.45 1.887,-2.517c0,0 -0.269,-9.256 -0.359,-10.873l-3.325,9.166c-0.45,1.168 -0.899,2.517 -1.258,3.954l-1.078,0.09c-0.271,-0.988 -0.99,-2.786 -0.99,-2.786c0,0 -2.785,-7.818 -3.773,-10.424" style="fill:#333333;"></path> <path d="M58.052,19.591c-0.359,-0.09 -0.719,-0.09 -1.078,-0.09c-0.719,0 -1.978,0.36 -3.505,0.36c-5.842,0 -10.155,-3.505 -10.155,-9.976c0,-5.481 4.045,-9.705 10.245,-9.705c1.437,0 3.056,0.27 4.403,0.809c0.27,-0.27 0.36,-0.449 0.629,-0.719l0.539,0c-0.09,0.989 -0.449,4.224 -0.449,4.224l-0.539,0c-0.36,-1.887 -1.348,-3.146 -4.493,-3.146c-3.775,0 -7.19,2.966 -7.19,8.448c0,6.2 3.505,8.897 7.369,8.897c2.517,0 4.044,-1.438 5.033,-3.236l0.628,0.27l-1.437,3.864Z" style="fill:#333333;"></path> <path d="M41.068,4.134l-0.629,0c-0.09,-1.708 -0.63,-2.247 -1.977,-2.247l-2.606,0l0,14.109c0,2.337 0.449,2.786 1.977,2.786l0,0.719l-6.741,0l0,-0.719c1.529,0 1.978,-0.449 1.978,-2.876l0,-14.019l-2.606,0c-1.708,0 -1.977,0.45 -2.426,2.247l-0.629,0l0.449,-4.044l0.449,0.09c0.18,0.449 0.539,0.449 1.617,0.449l8.717,0c1.618,0 1.978,0 2.337,-0.539l0.539,0l-0.449,4.044Z" style="fill:#333333;"></path> <path d="M22.016,19.95c-1.258,0 -2.246,-0.18 -2.965,-0.449c-0.72,-0.18 -1.259,-0.449 -1.528,-0.629c-0.36,0.359 -0.629,0.808 -0.629,0.808l-0.539,-0.179l0.449,-4.224l0.629,0.09c0.359,1.978 1.708,3.415 4.493,3.415c2.157,0 3.595,-1.797 3.595,-3.774c0,-1.618 -0.629,-2.426 -2.786,-4.044c-0.719,-0.45 -1.348,-0.809 -1.887,-1.259c-1.978,-1.257 -3.235,-2.695 -3.235,-5.032c0,-2.696 2.247,-4.493 5.213,-4.493c1.707,0 2.785,0.539 3.144,0.719l0.629,-0.719l0.449,0.09l-0.449,3.864l-0.629,-0.09c0,-1.797 -1.078,-2.606 -2.876,-2.606c-1.707,0 -2.965,0.899 -2.965,2.606c0,1.528 1.168,2.516 2.517,3.415c0.719,0.449 1.258,0.809 1.797,1.168c3.145,2.247 3.864,3.684 3.864,5.842c0,3.145 -2.427,5.481 -6.291,5.481" style="fill:#333333;"></path> <path d="M11.772,4.134l-0.719,0c0,-1.618 -0.719,-2.247 -2.157,-2.247l-4.044,0l0,7.1l2.607,0c1.347,0 1.617,-0.719 1.796,-1.888l0.629,0l0,5.033l-0.629,0c-0.179,-1.348 -0.449,-1.887 -1.886,-1.887l-2.517,0l0,6.02c0,2.247 0.539,2.517 1.978,2.517l0,0.719l-6.83,0l0,-0.719c1.707,0 1.976,-0.449 1.976,-2.517l0,-13.209c0,-1.258 -0.539,-1.797 -1.976,-1.797l0,-0.63l9.345,0c1.618,0 1.978,-0.09 2.247,-0.629l0.629,0l-0.449,4.134Z" style="fill:#333333;"></path> <path d="M97.503,4.314l-2.517,8.177l5.212,0l-2.695,-8.177Zm11.232,0.898l0,10.784c0,2.337 0.539,2.786 1.978,2.786l0,0.719l-10.605,0l0,-0.719c0.809,0 1.529,-0.269 1.529,-0.808c0,-0.36 -0.09,-0.989 -0.27,-1.618l-0.809,-2.606l-5.931,0c-0.09,0.359 -1.168,3.325 -1.168,4.134c0,0.719 0.809,0.898 1.348,0.898l0,0.719l-4.943,0l0,-0.719c0.899,0 1.618,-0.09 2.246,-1.976l4.583,-14.649c-0.269,-0.629 -0.628,-0.809 -1.257,-0.898l0,-0.63l4.044,0l4.852,15.367c0.449,1.618 0.9,2.427 1.618,2.786c1.078,-0.359 1.348,-0.718 1.348,-2.786l0,-12.94c-0.809,-1.078 -0.899,-1.797 -2.427,-1.797l0,-0.63l4.583,0l7.549,12.852l0,-9.796c0,-1.977 -0.449,-2.426 -1.977,-2.426l0,-0.63l10.065,0l0,0.63c-0.629,0 -1.168,0.269 -1.168,0.898c0,0.449 0.18,0.899 0.359,1.438l2.876,6.201l2.786,-6.021c0.45,-0.809 0.539,-1.258 0.539,-1.708c0,-0.539 -0.359,-0.808 -1.168,-0.808l0,-0.63l4.764,0l0,0.63c-1.17,0 -1.888,1.078 -2.428,2.336l-3.684,7.549l0,4.942c0,2.157 0.54,2.696 1.977,2.696l0,0.719l-6.83,0l0,-0.719c1.438,0 1.977,-0.539 1.977,-2.696l0,-4.224l-3.954,-8.357c-0.719,-1.617 -0.988,-1.977 -1.438,-2.246c-0.898,0.359 -1.168,0.988 -1.168,2.426l0,13.839c0,0 0.091,1.079 0.18,2.336l-1.168,0.09l-8.808,-14.738Z" style="fill:#333333;"></path> <path d="M85.462,1.887l-0.449,0l0,9.256l0.808,0c2.966,0 4.493,-1.348 4.493,-4.763c0,-3.415 -1.348,-4.493 -4.853,-4.493m0.899,10.604l-1.347,0l0,3.864c0,1.977 0.539,2.427 2.065,2.427l0,0.718l-6.92,0l0,-0.718c1.439,0 1.978,-0.54 1.978,-2.517l0,-12.67c0,-1.978 -0.539,-2.337 -1.978,-2.337l0,-0.629l5.213,0c5.032,0 7.999,1.528 7.999,5.661c0,4.314 -3.596,6.201 -7.01,6.201" style="fill:#333333;"></path> <path d="M54.997,5.122c-2.336,0 -3.145,2.247 -3.145,4.853c0,2.427 0.719,4.853 3.145,4.853c2.337,0 3.056,-2.426 3.056,-4.943c0,-2.426 -0.899,-4.763 -3.056,-4.763m0,10.784c-3.415,0 -5.751,-2.426 -5.751,-5.931c0,-3.325 2.426,-5.931 5.751,-5.931c3.235,0 5.662,2.516 5.662,5.931c0,3.325 -2.516,5.931 -5.662,5.931" style="fill:#333333;"></path> <path d="M14.198,6.111l-1.348,4.403l2.786,0l-1.438,-4.403Zm1.259,8.717l0,-0.629c0.898,0 1.078,-0.27 1.078,-0.539c0,-0.36 -0.09,-0.629 -0.18,-0.899c0,0 -0.179,-0.719 -0.359,-1.258l-3.505,0l-0.359,1.168c-0.09,0.27 -0.18,0.54 -0.18,0.899c0,0.359 0.359,0.629 0.898,0.629l0,0.629l-3.505,0l0,-0.629c0.899,0 1.259,-0.27 1.619,-1.258l2.695,-8.088c-0.09,-0.36 -0.359,-0.629 -0.898,-0.629l0,-0.629l2.875,0c2.336,6.829 2.965,8.626 2.965,8.626c0.451,1.529 0.9,1.978 1.618,1.978l0,0.629l-4.762,0Z" style="fill:#333333;"></path> </svg>