<svg xmlns="http://www.w3.org/2000/svg" xmlns:xlink="http://www.w3.org/1999/xlink" width="100%" height="100%" viewBox="0 0 147 21" xml:space="preserve" style="fill-rule:evenodd;clip-rule:evenodd;stroke-linejoin:round;stroke-miterlimit:1.41421;"> <path d="M9.031,0.018c0.409,0.036 1.051,0.237 1.534,0.661c0.514,0.499 0.631,1.256 0.451,1.943c-0.16,0.613 -0.339,0.932 -0.964,1.355c-0.633,0.427 -1.397,0.391 -1.397,0.391l0,2.656l1.292,1.045l-1.292,1.043l0,3.617c0,0 1.294,-0.742 2.097,-2.403c0,0 0.033,-0.091 0.109,-0.262c0.071,0.445 0.03,1.347 -0.474,2.503c-0.378,0.871 -1.069,1.709 -1.934,2.186c-1.533,0.851 -2.684,0.932 -3.917,0.676c-1.443,-0.297 -2.755,-1.108 -3.65,-2.523c-0.628,-0.994 -0.91,-2.154 -0.884,-3.401c0.05,-2.448 1.872,-4.56 3.974,-5.347c0.256,-0.096 0.359,-0.16 0.721,-0.192c-0.167,0.114 -0.36,0.261 -0.598,0.417c-0.677,0.445 -1.257,1.331 -1.505,2.013l4.082,-1.82l0,5.705l-3.291,1.649c0.375,0.52 1.513,1.307 2.488,1.418c1.658,0.183 2.631,-0.541 2.631,-0.541l0,-3.695l-1.285,-1.043l1.286,-1.042l0,-2.659c-0.702,-0.081 -1.553,-0.312 -2.05,-0.435c-0.733,-0.181 -3.173,-0.866 -3.556,-0.923c-0.384,-0.057 -0.856,-0.039 -1.142,0.216c-0.287,0.259 -0.464,0.712 -0.342,1.121c0.069,0.232 0.228,0.367 0.348,0.499c0,0 -0.14,-0.012 -0.396,-0.165c-0.461,-0.277 -0.811,-0.818 -0.854,-1.484c-0.053,-0.875 0.306,-1.662 1.028,-2.19c0.626,-0.403 1.335,-0.661 2.158,-0.544c1.202,0.171 2.818,0.85 4.257,1.195c0.557,0.135 0.989,0.181 1.382,-0.048c0.182,-0.132 0.504,-0.471 0.241,-0.922c-0.307,-0.529 -0.894,-0.517 -1.392,-0.61c0.429,-0.09 0.523,-0.09 0.844,-0.06m-4.852,11.344l0,-5.51l-1.657,0.739c-0.001,0 -0.423,0.947 -0.348,2.32c0.058,1.072 0.658,2.355 1.118,2.893l0.887,-0.442" style="fill:#333333;fill-rule:nonzero;"></path> <path d="M24.859,5.585c0,0 -1.25,0.757 -2.091,1.259c-0.841,0.498 -1.969,1.048 -1.969,1.048l0,5.258l-0.752,0.603l0.1,0.118l0.733,-0.592l2.3,2.079l3.997,-3.166l-0.094,-0.115l-2.209,1.733l-1.816,-1.7l0,-0.634l3.648,-2.683l-1.847,-3.208Zm0.054,4.341l-1.855,1.359l0,-4.519l1.855,3.16" style="fill:#333333;fill-rule:nonzero;"></path> <path d="M14.383,17.334c0.524,0.129 1.45,0.201 2.566,-0.357c1.236,-0.62 1.858,-1.932 1.849,-3.278l0.053,-1.908l0,-4.167l0.79,-0.603l-0.092,-0.118l-0.778,0.586l-1.794,-1.995l-2.302,1.977l0,-6.718l-2.876,2.224c0.128,0.081 0.535,0.156 0.547,0.73l0,9.409l-1.218,0.905l0.083,0.125l0.589,-0.438l1.638,1.522l2.578,-2.05l-0.093,-0.118l-0.606,0.48l-0.642,-0.637l0.006,-5.242l0.752,-0.64l1.12,1.392c0,0 -0.003,3.395 0.001,4.521c-0.009,1.202 -0.013,2.701 -0.645,3.424c-0.63,0.728 -0.883,0.785 -1.526,0.974" style="fill:#333333;fill-rule:nonzero;"></path> <path d="M32.278,16.86c-1.03,-0.117 -1.463,-0.742 -1.451,-1.234c0.008,-0.317 0.294,-0.935 0.92,-1.019c0.626,-0.087 1.265,0.207 1.806,0.841l2.379,-2.629l-0.114,-0.102l-0.64,0.715c-0.648,-0.739 -1.57,-1.205 -2.487,-1.34l0,-8.009l6.18,11.256c0,0 0.058,0.13 0.313,0.13c0.219,0 0.166,-0.177 0.166,-0.177l-0.001,-11.329c0.502,-0.021 1.269,-0.298 1.641,-0.679c1.19,-1.223 0.704,-2.557 0.573,-2.686c-0.072,0.583 -0.52,1.169 -1.268,1.172c-0.982,0.003 -1.58,-0.721 -1.58,-0.721l-2.378,2.709l0.114,0.102l0.681,-0.777c0.832,0.766 1.439,0.838 2.067,0.88l-0.001,6.573l-4.584,-8.328c-0.414,-0.687 -1.047,-1.291 -2.037,-1.301c-1.139,-0.005 -1.954,0.998 -2.051,1.863c-0.11,0.976 0.012,1.202 0.012,1.202c0,0 0.167,-1.088 0.84,-1.079c0.604,0.009 0.919,0.565 1.162,0.983l0,2.412c-0.624,0.042 -2.247,0.114 -2.346,1.802c-0.007,0.628 0.383,1.287 0.725,1.508c0.438,0.289 0.781,0.283 0.781,0.283c0,0 -0.526,-0.28 -0.368,-0.833c0.14,-0.495 1.171,-0.576 1.208,-0.369l0,3.404c-0.495,-0.006 -2.083,0.048 -2.8,1.409c-0.432,0.823 -0.406,1.743 0.055,2.391c0.377,0.53 1.15,1.206 2.483,0.977" style="fill:#333333;fill-rule:nonzero;"></path> <path d="M45.329,5.585c0,0 -1.25,0.757 -2.091,1.259c-0.841,0.498 -1.969,1.048 -1.969,1.048l0,5.258l-0.752,0.603l0.1,0.118l0.733,-0.592l2.3,2.079l3.997,-3.166l-0.094,-0.115l-2.209,1.733l-1.816,-1.7l0,-0.634l3.647,-2.683l-1.846,-3.208Zm0.054,4.341l-1.855,1.359l0,-4.519l1.855,3.16" style="fill:#333333;fill-rule:nonzero;"></path> <path d="M50.916,15.397l-1.96,-1.629l-0.86,0.625l-0.088,-0.123l0.876,-0.64l0,-4.551c0.042,-1.875 -1.717,-1.409 -1.622,-3.398c0.042,-0.874 0.888,-1.535 1.315,-1.754c0.457,-0.232 0.952,-0.232 0.952,-0.232c0,0 -0.801,0.502 -0.607,1.223c0.3,1.111 2.2,1.21 2.236,2.692l0,5.164l1.404,1.124l0.369,-0.288l0,-5.592l-0.757,-0.751l1.948,-1.724l1.779,1.577l-0.678,0.736l0,4.954l1.667,1.376l0.296,-0.189l0,-5.964l-0.758,-0.709l1.952,-1.784l1.824,1.508l0.73,-0.646l0.098,0.114l-1.64,1.442l0,4.861l-4.199,2.59l-2.147,-1.7l-2.13,1.688" style="fill:#333333;fill-rule:nonzero;"></path> <path d="M136.794,5.585c0,0 -1.251,0.757 -2.091,1.259c-0.841,0.498 -1.969,1.048 -1.969,1.048l0,5.258l-0.752,0.603l0.1,0.118l0.733,-0.592l2.3,2.079l3.997,-3.166l-0.094,-0.115l-2.209,1.733l-1.816,-1.7l0,-0.634l3.648,-2.683l-1.847,-3.208Zm0.054,4.341l-1.855,1.359l0,-4.519l1.855,3.16" style="fill:#333333;fill-rule:nonzero;"></path> <path d="M118.031,7.784l0.099,0.114l0.752,-0.649l1.118,1.265l0,4.344l-0.543,0.496l1.741,1.968l1.786,-1.761l-0.734,-0.759l0,-5.255l0.444,-0.355l1.235,1.442l0,4.333l-0.463,0.463l1.639,1.844l1.753,-1.755l-0.644,-0.675l-0.017,-5.276l0.474,-0.385l1.288,1.418l0,4.309l-0.424,0.423l1.81,1.973l2.43,-2.244l-0.102,-0.11l-0.59,0.543l-0.906,-1.003l0,-4.918l0.875,-0.664l-0.091,-0.12l-0.875,0.664l-1.655,-1.854l-2.364,1.869l-1.656,-1.803l-2.283,1.788l-1.671,-1.779l-2.426,2.109Z" style="fill:#333333;fill-rule:nonzero;"></path> <path d="M113.083,7.649l0.098,0.114l0.636,-0.55l0.995,1.178l0,4.966l-0.702,0.612l0.098,0.116l0.736,-0.629l1.605,1.85l2.318,-2.069l-0.097,-0.114l-0.683,0.6l-0.959,-1.105l0,-4.855l0.809,-0.7l-0.098,-0.114l-0.769,0.661l-1.687,-1.968l-2.3,2.007Z" style="fill:#333333;fill-rule:nonzero;"></path> <path d="M113.751,3.536l1.745,-1.598l1.42,1.574l-1.754,1.592l-1.411,-1.568Z" style="fill:#333333;fill-rule:nonzero;"></path> <path d="M111.404,0.018c0.409,0.036 1.052,0.237 1.535,0.661c0.514,0.499 0.63,1.256 0.45,1.943c-0.16,0.613 -0.339,0.932 -0.964,1.355c-0.632,0.427 -1.397,0.391 -1.397,0.391l0,2.656l1.292,1.045l-1.292,1.043l0,3.617c0,0 1.294,-0.742 2.098,-2.403c0,0 0.033,-0.091 0.107,-0.262c0.071,0.445 0.031,1.347 -0.473,2.503c-0.378,0.871 -1.069,1.709 -1.934,2.186c-1.533,0.851 -2.684,0.932 -3.916,0.676c-1.443,-0.297 -2.755,-1.108 -3.65,-2.523c-0.628,-0.994 -0.911,-2.154 -0.884,-3.401c0.049,-2.448 1.871,-4.56 3.974,-5.347c0.255,-0.096 0.357,-0.16 0.721,-0.192c-0.168,0.114 -0.361,0.261 -0.599,0.417c-0.676,0.445 -1.256,1.331 -1.505,2.013l4.081,-1.82l0,5.705l-3.29,1.649c0.375,0.52 1.514,1.307 2.489,1.418c1.657,0.183 2.63,-0.541 2.63,-0.541l0,-3.695l-1.285,-1.043l1.285,-1.042l0,-2.659c-0.701,-0.081 -1.551,-0.312 -2.049,-0.435c-0.733,-0.181 -3.173,-0.866 -3.556,-0.923c-0.383,-0.057 -0.856,-0.039 -1.142,0.216c-0.287,0.259 -0.463,0.712 -0.342,1.121c0.069,0.232 0.228,0.367 0.348,0.499c0,0 -0.14,-0.012 -0.396,-0.165c-0.461,-0.277 -0.812,-0.818 -0.854,-1.484c-0.053,-0.875 0.307,-1.662 1.028,-2.19c0.627,-0.403 1.335,-0.661 2.159,-0.544c1.201,0.171 2.817,0.85 4.257,1.195c0.557,0.135 0.989,0.181 1.381,-0.048c0.182,-0.132 0.504,-0.471 0.241,-0.922c-0.307,-0.529 -0.894,-0.517 -1.391,-0.61c0.428,-0.09 0.522,-0.09 0.843,-0.06m-4.852,11.344l0,-5.51l-1.656,0.739c0,0 -0.423,0.947 -0.349,2.32c0.058,1.072 0.658,2.355 1.119,2.893l0.886,-0.442" style="fill:#333333;fill-rule:nonzero;"></path> <path d="M141.242,16.037c-0.265,0.078 -1.416,-0.201 -1.691,-1.394c-0.27,-1.163 0.538,-1.95 1.757,-3.187l-1.44,-1.316l0,-2.512c0,0 1.059,-0.529 1.888,-1.046c0.828,-0.519 1.676,-1.081 1.676,-1.081c0,0 0.619,0.781 1.318,0.718c1.094,-0.096 1.043,-0.958 1.012,-1.162c0.186,0.333 0.686,1.324 -1.237,3.542l1.567,1.264l0,3.263c0,0 -1.82,0.946 -3.54,2.202c0,0 -0.961,-1.201 -1.795,-0.628c-0.563,0.388 -0.305,1.042 0.485,1.337m-1.353,-2.515c0,0 0.827,-1.367 2.247,-1.072c1.362,0.282 1.835,1.722 1.835,1.722l0,-3.314l-0.951,-0.827c-1.044,1.049 -2.901,2.566 -3.131,3.491m2.108,-6.922l0,2.611l0.869,0.758c0,0 1.888,-1.512 2.572,-2.912c0,0 -0.847,1.151 -1.99,0.799c-0.956,-0.291 -1.451,-1.256 -1.451,-1.256" style="fill:#333333;fill-rule:nonzero;"></path> <path d="M82.468,7.754l0.705,-0.649l0.101,0.114l-0.687,0.637l0,5.189c0,0 -1.305,0.691 -2.215,1.205c-0.91,0.513 -1.882,1.117 -1.882,1.117l-2.393,-2.016l-0.633,0.55l-0.102,-0.114l0.665,-0.58l0,-5.579l0.008,0c0,0 1.129,-0.511 2.082,-1.049c0.852,-0.48 1.805,-1.036 1.805,-1.036l2.546,2.211Zm-4.17,4.573l2.023,1.829l0,-5.6l-2.023,-1.871l0,5.642" style="fill:#333333;fill-rule:nonzero;"></path> <path d="M87.174,7.228l1.52,-1.553c0,0 0.209,0.183 0.405,0.28c0.111,0.053 0.571,0.291 0.993,0.06c0.228,-0.127 0.262,-0.16 0.513,-0.397c0.05,1.208 -0.529,2.058 -1.252,2.409c-0.296,0.144 -1.161,0.421 -2.066,-0.682l0,5.582l0.962,0.851l0.804,-0.664l0.093,0.117l-2.516,2.1l-1.914,-1.743l-0.689,0.649l-0.113,-0.12l1.049,-0.947l0.009,-4.818l-0.805,-1.067l-0.691,0.61l-0.101,-0.111l2.438,-2.19l1.361,1.634" style="fill:#333333;fill-rule:nonzero;"></path> <path d="M93.583,9.553l2.812,-4.088c0,0 0.37,0.438 1.016,0.609c0.877,0.229 1.644,-0.619 1.644,-0.619c-0.147,1.094 -0.701,2.335 -1.846,2.524c-1.008,0.168 -1.946,-0.616 -1.946,-0.616l-0.182,0.282l3.902,5.894l0.781,-0.684l0.1,0.114l-2.677,2.34l-3.604,-5.756" style="fill:#333333;fill-rule:nonzero;"></path> <path d="M91.261,4.095c0,-0.883 -0.361,-1.427 -0.834,-1.388l3.066,-2.154l0,12.192l0.81,0.852l0.613,-0.532l0.097,0.115l-2.471,2.157l-1.674,-1.572l-0.669,0.589l-0.107,-0.114l1.169,-1.018l0,-9.127" style="fill:#333333;fill-rule:nonzero;"></path> <path d="M65.629,3.893c0,-0.823 -0.335,-1.283 -0.876,-1.295c-0.779,-0.018 -0.965,1.082 -0.965,1.082c0,0 -0.141,-0.848 0.568,-1.617c0.398,-0.429 1.142,-1.033 2.305,-0.753c1.201,0.291 1.542,1.222 1.542,2.045l0,11.341c0,0 0.454,0.054 0.765,0.123c0.361,0.075 0.704,0.172 0.704,0.172l0,-13.676l0.148,0l0,1.845l2.463,-1.983l1.804,1.605l0.842,-0.727l0.096,0.113l-0.88,0.758l0,10.545c-0.043,0.687 -0.155,1.387 -0.804,1.79c-1.449,0.859 -3.197,-0.132 -4.754,-0.358c-1.156,-0.171 -2.971,-0.39 -3.426,0.67c-0.148,0.349 -0.138,0.887 0.386,1.237c1.052,0.705 5.737,-1.179 7.344,-0.431c1.465,0.681 1.46,1.76 1.233,2.502c-0.381,1.391 -2.137,1.635 -2.137,1.635c0,0 0.86,-0.499 0.615,-1.326c-0.124,-0.417 -0.409,-0.535 -1.327,-0.432c-2.008,0.228 -4.409,1.201 -6.022,0.526c-0.831,-0.346 -1.419,-1.386 -1.362,-2.406c0.042,-1.47 1.738,-2.05 1.738,-2.05l-0.001,-5.435c-0.048,-0.215 -0.953,-0.159 -1.151,0.241c-0.301,0.604 0.374,0.881 0.374,0.881c0,0 -0.56,0.084 -1.029,-0.457c-0.228,-0.265 -0.705,-1.19 -0.085,-2.046c0.51,-0.706 1.121,-0.829 1.892,-0.913l0,-3.206Zm4.191,11.14c0,0 0.715,0.189 1.236,-0.238c0.579,-0.478 0.518,-1.147 0.518,-1.147l0,-4.224c0,0 -0.336,-0.433 -0.869,-0.433c-0.533,0 -0.885,0.447 -0.885,0.447l0,5.595Zm1.754,-11.089l-1.182,-1.039l-0.572,0.45l0,3.914c0,0 0.352,0.445 0.885,0.445c0.533,0 0.869,-0.426 0.869,-0.426l0,-3.344Zm0,3.578c0,0 -0.339,0.385 -0.872,0.385c-0.532,0 -0.882,-0.388 -0.882,-0.388l0,1.67c0,0 0.35,-0.387 0.882,-0.387c0.533,0 0.872,0.366 0.872,0.366l0,-1.646" style="fill:#333333;fill-rule:nonzero;"></path> </svg>