<svg xmlns="http://www.w3.org/2000/svg" xmlns:xlink="http://www.w3.org/1999/xlink" width="100%" height="100%" viewBox="0 0 146 21" xml:space="preserve" style="fill-rule:evenodd;clip-rule:evenodd;stroke-linejoin:round;stroke-miterlimit:1.41421;"> <path d="M54.86,8.042l0,9.109l-3.328,0l0,-9.109l-3.362,0l0,-2.899l10.052,0l0,2.899l-3.362,0Z" style="fill:#333333;fill-rule:nonzero;"></path> <path d="M61.909,10.237c-0.704,0 -1.098,0.48 -1.201,1.372l2.573,0c-0.155,-0.909 -0.464,-1.372 -1.372,-1.372m4.083,3.293l-5.284,0c0.103,0.996 0.686,1.441 1.527,1.441c0.788,0 1.441,-0.171 2.333,-0.635l1.183,1.974c-1.114,0.651 -2.264,1.029 -3.671,1.029c-2.711,0 -4.203,-1.922 -4.203,-4.685c0,-3.104 1.75,-4.699 4.117,-4.699c2.471,0 4.015,1.63 4.015,4.975c0,0.258 0,0.446 -0.017,0.6" style="fill:#333333;fill-rule:nonzero;"></path> <path d="M71.736,17.339c-2.641,0 -4.22,-1.681 -4.22,-4.718c0,-2.762 1.407,-4.666 4.289,-4.666c1.698,0 2.676,0.789 3.465,2.059l-2.127,1.612c-0.429,-0.789 -0.721,-1.166 -1.389,-1.166c-0.79,0 -1.185,0.789 -1.185,2.213c0,1.424 0.429,2.161 1.27,2.161c0.583,0 0.995,-0.326 1.561,-1.167l1.955,1.527c-1.046,1.544 -2.024,2.145 -3.619,2.145" style="fill:#333333;fill-rule:nonzero;"></path> <path d="M82.267,17.151l0,-5.112c0,-1.167 -0.395,-1.476 -1.029,-1.476c-0.653,0 -1.047,0.309 -1.047,1.441l0,5.147l-3.088,0l0,-11.271l3.088,-1.235l0,4.1c0.566,-0.429 1.201,-0.789 2.264,-0.789c1.974,0 2.917,1.32 2.917,3.688l0,5.507l-3.105,0Z" style="fill:#333333;fill-rule:nonzero;"></path> <path d="M92.763,17.339c-3.568,0 -5.473,-2.643 -5.473,-6.193c0,-3.86 2.265,-6.193 5.49,-6.193c2.951,0 4.117,1.269 4.941,3.534l-3.02,1.184c-0.429,-1.115 -0.84,-1.819 -1.938,-1.819c-1.39,0 -1.99,1.389 -1.99,3.294c0,1.836 0.583,3.294 2.024,3.294c1.046,0 1.492,-0.567 2.144,-1.699l2.814,1.493c-0.806,1.578 -2.145,3.105 -4.992,3.105" style="fill:#333333;fill-rule:nonzero;"></path> <path d="M105.351,11.541c-0.395,-0.429 -0.84,-0.754 -1.44,-0.754c-0.756,0 -1.219,0.359 -1.219,1.457l0,4.907l-3.088,0l0,-9.006l3.088,0l0,0.651c0.532,-0.514 1.132,-0.84 1.922,-0.84c0.652,0 1.098,0.154 1.458,0.377l-0.721,3.208Z" style="fill:#333333;fill-rule:nonzero;"></path> <path d="M112.691,17.151l0,-0.602c-0.549,0.429 -1.201,0.79 -2.247,0.79c-1.973,0 -2.917,-1.321 -2.917,-3.689l0,-5.506l3.106,0l0,5.112c0,1.166 0.394,1.475 1.029,1.475c0.634,0 1.029,-0.309 1.029,-1.441l0,-5.146l3.105,0l0,9.007l-3.105,0Z" style="fill:#333333;fill-rule:nonzero;"></path> <path d="M123.188,17.151l0,-5.112c0,-1.167 -0.395,-1.476 -1.029,-1.476c-0.653,0 -1.047,0.309 -1.047,1.441l0,5.147l-3.088,0l0,-9.007l3.088,0l0,0.601c0.566,-0.429 1.201,-0.789 2.264,-0.789c1.973,0 2.917,1.32 2.917,3.688l0,5.507l-3.105,0Z" style="fill:#333333;fill-rule:nonzero;"></path> <path d="M132.311,17.339c-2.641,0 -4.22,-1.681 -4.22,-4.718c0,-2.762 1.407,-4.666 4.289,-4.666c1.698,0 2.676,0.789 3.465,2.059l-2.127,1.612c-0.429,-0.789 -0.721,-1.166 -1.389,-1.166c-0.79,0 -1.185,0.789 -1.185,2.213c0,1.424 0.429,2.161 1.27,2.161c0.583,0 0.995,-0.326 1.561,-1.167l1.955,1.527c-1.046,1.544 -2.024,2.145 -3.619,2.145" style="fill:#333333;fill-rule:nonzero;"></path> <path d="M142.842,17.151l0,-5.112c0,-1.167 -0.395,-1.476 -1.029,-1.476c-0.653,0 -1.047,0.309 -1.047,1.441l0,5.147l-3.088,0l0,-11.271l3.088,-1.235l0,4.1c0.566,-0.429 1.201,-0.789 2.264,-0.789c1.974,0 2.917,1.32 2.917,3.688l0,5.507l-3.105,0Z" style="fill:#333333;fill-rule:nonzero;"></path> <path d="M0,0l0,6.86l6.86,0l0,13.721l6.861,0l0,-13.721l6.86,0l0,-6.86l-20.581,0Z" style="fill:#333333;fill-rule:nonzero;"></path> <path d="M27.441,13.72l0,-6.86l-6.86,0l0,13.72l20.58,0l0,-6.86l-13.72,0Z" style="fill:#333333;fill-rule:nonzero;"></path> <rect x="27.442" y="0" width="13.72" height="6.86" style="fill:#333333;fill-rule:nonzero;"></rect> </svg>