<svg xmlns="http://www.w3.org/2000/svg" xmlns:xlink="http://www.w3.org/1999/xlink" width="100%" height="100%" viewBox="0 0 82 21" xml:space="preserve" style="fill-rule:evenodd;clip-rule:evenodd;stroke-linejoin:round;stroke-miterlimit:1.41421;"> <path d="M47.529,19.405c-0.375,0 -0.844,0 -1.125,-0.094c-0.093,-1.312 -0.187,-6.843 -0.093,-11.718c0.562,-0.187 0.936,-0.281 1.405,-0.281c2.063,0 3.188,2.438 3.188,5.438c0,3.749 -1.406,6.655 -3.375,6.655m2.156,-13.593c-1.312,0 -2.343,0.281 -3.374,0.844c0,-3 0,-5.718 0.093,-6.656l-6.281,1.125l0,0.563l0.656,0.093c0.844,0.187 1.125,0.656 1.313,1.781c0.187,2.25 0.094,14.249 0,16.218c1.687,0.375 3.468,0.656 5.25,0.656c4.968,0 7.968,-3.094 7.968,-7.968c0,-3.843 -2.437,-6.656 -5.625,-6.656" style="fill:#333333;"></path> <path d="M16.499,0.375l-16.499,0l0,0.844l0.938,0.093c1.219,0.188 1.687,0.938 1.874,2.719c0.282,3.375 0.188,9.469 0,12.375c-0.187,1.78 -0.655,2.625 -1.874,2.718l-0.938,0.187l0,0.75l10.594,0l0,-0.75l-1.126,-0.187c-1.218,-0.093 -1.687,-0.938 -1.874,-2.718c-0.094,-1.22 -0.188,-3.189 -0.188,-5.626l2.25,0.094c1.406,0 2.062,1.126 2.344,2.719l0.843,0l0,-6.656l-0.843,0c-0.282,1.594 -0.938,2.719 -2.344,2.719l-2.25,0.094c0,-3.188 0.094,-6.188 0.188,-7.969l3.28,0c2.532,0 3.844,1.594 4.781,4.406l0.938,-0.281l-0.094,-5.531Z" style="fill:#333333;"></path> <path d="M21.561,6.562c-2.062,0 -2.625,2.813 -2.625,6.469c0,3.561 0.938,6.468 2.813,6.468c2.156,0 2.719,-2.812 2.719,-6.468c0,-3.563 -0.938,-6.469 -2.907,-6.469m0.282,-0.937c4.687,0 7.03,3.187 7.03,7.406c0,4.03 -2.625,7.405 -7.312,7.405c-4.687,0 -7.031,-3.186 -7.031,-7.405c0,-4.031 2.625,-7.406 7.313,-7.406" style="fill:#333333;"></path> <path d="M60.84,11.344l4.406,-0.094c0,-1.875 -0.281,-4.688 -1.875,-4.688c-1.594,0 -2.437,2.625 -2.531,4.782m-4.312,1.779c0,-3.842 2.437,-7.498 7.218,-7.498c3.938,0 5.813,2.906 5.813,6.75l-8.719,0c-0.094,3.469 1.594,5.998 4.969,5.998c1.5,0 2.25,-0.375 3.187,-1.03l0.375,0.469c-0.938,1.311 -3,2.625 -5.625,2.625c-4.218,0 -7.218,-3 -7.218,-7.314" style="fill:#333333;"></path> <path d="M80.714,6.375c-1.125,-0.469 -2.625,-0.75 -4.312,-0.75c-3.468,0 -5.625,2.062 -5.625,4.5c0,2.437 1.593,3.468 3.844,4.218c2.343,0.843 3,1.5 3,2.624c0,1.126 -0.845,2.157 -2.344,2.157c-1.781,0 -3.094,-1.031 -4.125,-3.843l-0.656,0.187l0.093,4.124c1.125,0.469 3.188,0.844 4.969,0.844c3.656,0 6,-1.875 6,-4.78c0,-1.969 -1.031,-3.094 -3.469,-4.032c-2.625,-1.031 -3.562,-1.687 -3.562,-2.906c0,-1.218 0.844,-2.062 1.968,-2.062c1.688,0 2.813,1.031 3.657,3.562l0.656,-0.187l-0.094,-3.656Z" style="fill:#333333;"></path> <path d="M41.061,6c-1.594,-0.937 -4.407,-0.469 -5.907,2.906l0.095,-3.281l-6.281,1.219l0,0.562l0.656,0.094c0.844,0.094 1.218,0.563 1.312,1.781c0.188,2.25 0.094,6.188 0,8.156c-0.094,1.125 -0.468,1.687 -1.312,1.781l-0.656,0.094l0,0.75l8.718,0l0,-0.75l-1.125,-0.094c-0.937,-0.094 -1.219,-0.656 -1.312,-1.781c-0.188,-1.781 -0.188,-5.343 -0.094,-7.593c0.469,-0.657 2.531,-1.219 4.406,0l1.5,-3.844Z" style="fill:#333333;"></path> </svg>