<svg width="401px" height="79px" viewBox="0 0 401 79" version="1.1" xmlns="http://www.w3.org/2000/svg" xmlns:xlink="http://www.w3.org/1999/xlink"><title>logo</title><defs><polygon id="path-1" points="0 0.674 81.8330934 0.674 81.8330934 79 0 79"></polygon><polygon id="path-3" points="0.0423 0.7208 28.764 0.7208 28.764 40.0648 0.0423 40.0648"></polygon></defs><g id="c" stroke="none" stroke-width="1" fill="none" fill-rule="evenodd" transform="translate(-2.000000, -1.000000)"><g id="FS_White" transform="translate(2.000000, 0.000000)"><g id="Page-1"><g id="Group-3" transform="translate(0.000000, 0.326400)"><mask id="mask-2" fill="white"><use xlink:href="#path-1"></use></mask><g id="Clip-2"></g><path d="M74.966,25.3544 L55.432,25.3544 C54.535,25.3544 53.747,24.7814 53.47,23.9284 L47.433,5.3514 C46.51,2.5104 43.951,0.6734 40.913,0.6734 C37.879,0.6734 35.322,2.5104 34.399,5.3514 L28.362,23.9284 C28.086,24.7814 27.297,25.3544 26.401,25.3544 L6.866,25.3544 C3.842,25.3544 1.284,27.2134 0.349,30.0894 C-0.585,32.9664 0.392,35.9734 2.839,37.7504 L16.827,47.9144 C18.638,49.2294 19.39,51.5444 18.698,53.6734 L13.412,69.9424 C12.471,72.8744 13.442,76.0184 15.828,77.7664 C17.737,79.1644 20.098,79.3614 22.848,78.3504 C24.124,77.8824 25.142,77.2824 25.997,76.7574 C28.355,75.3074 31.411,73.0044 33.484,71.3334 C34.513,70.5024 34.675,68.9954 33.844,67.9654 C33.014,66.9354 31.507,66.7744 30.477,67.6044 C28.017,69.5884 25.273,71.5804 23.488,72.6774 C22.65,73.1924 21.974,73.5694 21.196,73.8554 C19.463,74.4924 18.919,74.0944 18.658,73.9034 C18.059,73.4634 17.614,72.5214 17.969,71.4144 L23.254,55.1534 C24.588,51.0444 23.137,46.5784 19.642,44.0394 L5.654,33.8754 C4.528,33.0584 4.796,31.9044 4.904,31.5694 C5.013,31.2354 5.476,30.1444 6.866,30.1444 L26.401,30.1444 C29.378,30.1444 31.998,28.2414 32.918,25.4094 L38.954,6.8314 C39.366,5.5624 40.558,5.4634 40.913,5.4634 C41.27,5.4634 42.466,5.5624 42.879,6.8314 L48.915,25.4094 C49.835,28.2414 52.454,30.1444 55.432,30.1444 L74.966,30.1444 C76.357,30.1444 76.82,31.2354 76.928,31.5694 C77.037,31.9044 77.304,33.0584 76.179,33.8754 L62.191,44.0394 C58.695,46.5784 57.244,51.0444 58.579,55.1534 L63.856,71.3934 C64.275,72.6794 63.732,73.4524 63.203,73.8744 C62.676,74.2944 62.099,74.3934 60.476,73.7744 L59.963,73.5684 C48.682,68.9344 41.607,61.2064 41.538,61.1294 C41.513,61.1024 41.487,61.0754 41.462,61.0494 C38.655,58.2064 36.429,55.4554 34.656,52.6384 C33.374,50.6014 32.36,48.5554 31.643,46.5554 C30.24,42.6504 30.289,40.0764 31.798,38.4574 C32.494,37.7094 34.073,37.2834 35.111,37.5624 C36.775,38.0124 37.928,39.3474 38.634,41.6444 C38.941,42.6434 39.861,43.3284 40.906,43.3354 C41.957,43.3754 42.881,42.6714 43.202,41.6764 C43.712,40.0974 44.97,37.4504 47.667,37.4504 C47.671,37.4504 47.675,37.4504 47.68,37.4514 C48.698,37.4544 49.612,37.8914 50.251,38.6814 C51.578,40.3204 51.545,42.9314 50.15,46.6634 C49.176,49.2674 47.433,52.0854 45.599,54.0194 C44.689,54.9794 44.73,56.4944 45.689,57.4054 C46.65,58.3144 48.165,58.2744 49.075,57.3144 C51.356,54.9084 53.435,51.5544 54.635,48.3414 C56.676,42.8844 56.459,38.7394 53.974,35.6684 C52.434,33.7654 50.145,32.6694 47.695,32.6614 C45.049,32.6714 42.695,33.8114 40.952,35.8944 C39.495,34.1504 37.782,33.3234 36.36,32.9394 C33.597,32.1924 30.204,33.1414 28.292,35.1934 C24.093,39.7024 26.383,46.0784 27.134,48.1744 C27.969,50.4994 29.136,52.8594 30.602,55.1894 C32.555,58.2924 34.981,61.2984 38.019,64.3784 C38.695,65.1194 46.053,72.9774 57.93,77.9104 C57.948,77.9184 57.966,77.9264 57.984,77.9344 C58.947,78.3394 60.513,79.0004 62.264,79.0004 C63.529,79.0004 64.892,78.6544 66.191,77.6174 C68.506,75.7694 69.356,72.8164 68.411,69.9124 L63.134,53.6734 C62.443,51.5444 63.195,49.2294 65.006,47.9144 L78.994,37.7504 C81.441,35.9734 82.418,32.9664 81.484,30.0894 C80.549,27.2134 77.99,25.3544 74.966,25.3544" id="Fill-1" fill="#FFFFFF" mask="url(#mask-2)"></path></g><path d="M102.6818,63.9906 C104.2238,63.9906 105.4788,62.6776 105.4788,61.1356 L105.4788,46.8026 L122.6668,46.8026 C124.0378,46.8026 125.2368,45.6616 125.2368,44.2336 C125.2368,42.8626 124.0378,41.7786 122.6668,41.7786 L105.4788,41.7786 L105.4788,30.6436 L123.0668,30.6436 C124.4368,30.6436 125.6358,29.5586 125.6358,28.1876 C125.6358,26.7606 124.4368,25.6186 123.0668,25.6186 L102.8518,25.6186 C100.8538,25.6186 99.7688,26.7036 99.7688,28.6446 L99.7688,61.1356 C99.7688,62.6776 101.0828,63.9906 102.6818,63.9906" id="Fill-4" fill="#FFFFFF"></path><path d="M137.8576,25.3326 C136.2586,25.3326 134.9456,26.6456 134.9456,28.1876 L134.9456,61.1356 C134.9456,62.6766 136.2586,63.9906 137.8576,63.9906 C139.3996,63.9906 140.6546,62.6766 140.6546,61.1356 L140.6546,28.1876 C140.6546,26.6456 139.3996,25.3326 137.8576,25.3326" id="Fill-6" fill="#FFFFFF"></path><path d="M162.6408,60.7928 C163.3828,62.6208 165.2108,63.9908 167.3238,63.9908 C169.4928,63.9908 171.3208,62.6208 172.0628,60.7928 L184.5118,29.4438 C184.6828,29.1008 184.7398,28.7588 184.7398,28.3588 C184.7398,26.7038 183.4258,25.3328 181.7128,25.3328 C180.4558,25.3328 179.3148,26.1318 178.9148,27.2748 L167.3238,57.4808 L155.7888,27.2748 C155.3318,26.1318 154.2468,25.3328 152.9338,25.3328 C151.2778,25.3328 149.9068,26.7038 149.9068,28.3588 C149.9068,28.7588 150.0218,29.1008 150.1918,29.4438 L162.6408,60.7928 Z" id="Fill-8" fill="#FFFFFF"></path><path d="M195.9895,63.7054 L216.2025,63.7054 C217.5735,63.7054 218.7725,62.5634 218.7725,61.1354 C218.7725,59.7654 217.5735,58.6804 216.2025,58.6804 L198.6155,58.6804 L198.6155,46.8024 L215.8035,46.8024 C217.1745,46.8024 218.3735,45.6614 218.3735,44.2344 C218.3735,42.8624 217.1745,41.7784 215.8035,41.7784 L198.6155,41.7784 L198.6155,30.6434 L216.2025,30.6434 C217.5735,30.6434 218.7725,29.5584 218.7725,28.1874 C218.7725,26.7604 217.5735,25.6184 216.2025,25.6184 L195.9895,25.6184 C193.9905,25.6184 192.9065,26.7034 192.9065,28.6444 L192.9065,60.6784 C192.9065,62.6204 193.9905,63.7054 195.9895,63.7054" id="Fill-10" fill="#FFFFFF"></path><path d="M241.9572,59.3082 C237.7892,59.3082 234.4202,57.7102 231.8512,55.6532 C231.3942,55.3122 230.7652,55.0832 230.1382,55.0832 C228.6522,55.0832 227.3972,56.3392 227.3972,57.8242 C227.3972,58.7372 227.8532,59.4802 228.4812,59.9932 C231.7372,62.6772 236.1332,64.3912 241.7282,64.3912 C252.0082,64.3912 256.1182,58.8522 256.1182,52.9132 C256.1182,44.8042 248.8672,42.8632 242.6432,41.2072 C237.9032,40.0082 233.7922,38.9232 233.7922,35.4962 C233.7922,32.2982 236.7052,30.1292 241.3862,30.1292 C244.5272,30.1292 247.8392,31.0432 250.5232,33.1562 C250.9222,33.4412 251.4932,33.6702 252.1222,33.6702 C253.6062,33.6702 254.8052,32.4132 254.8052,30.9292 C254.8052,30.0152 254.3482,29.2152 253.6062,28.7592 C250.1242,26.3032 246.4692,25.0472 241.8432,25.0472 C233.4492,25.0472 227.9102,29.6162 227.9102,35.8972 C227.9102,43.6632 234.9912,45.4332 241.1012,47.0312 C245.9552,48.2882 250.2942,49.4302 250.2942,53.4272 C250.2942,56.1682 248.1242,59.3082 241.9572,59.3082" id="Fill-12" fill="#FFFFFF"></path><path d="M289.1262,25.6185 L264.2862,25.6185 C262.9172,25.6185 261.7742,26.7605 261.7742,28.1875 C261.7742,29.5585 262.9172,30.6435 264.2862,30.6435 L273.8802,30.6435 L273.8802,61.1355 C273.8802,62.6775 275.1362,63.9905 276.7352,63.9905 C278.2772,63.9905 279.5902,62.6775 279.5902,61.1355 L279.5902,30.6435 L289.1262,30.6435 C290.4972,30.6435 291.6962,29.5585 291.6962,28.1875 C291.6962,26.7605 290.4972,25.6185 289.1262,25.6185" id="Fill-14" fill="#FFFFFF"></path><g id="Group-18" transform="translate(372.000000, 24.326400)"><mask id="mask-4" fill="white"><use xlink:href="#path-3"></use></mask><g id="Clip-17"></g><path d="M15.2883,16.8808 C10.5493,15.6818 6.4373,14.5968 6.4373,11.1698 C6.4373,7.9728 9.3503,5.8028 14.0313,5.8028 C17.1723,5.8028 20.4843,6.7168 23.1683,8.8298 C23.5683,9.1148 24.1393,9.3438 24.7673,9.3438 C26.2513,9.3438 27.4513,8.0868 27.4513,6.6028 C27.4513,5.6888 26.9943,4.8898 26.2513,4.4328 C22.7693,1.9768 19.1143,0.7208 14.4893,0.7208 C6.0953,0.7208 0.5563,5.2898 0.5563,11.5708 C0.5563,19.3368 7.6363,21.1068 13.7463,22.7048 C18.6003,23.9618 22.9403,25.1038 22.9403,29.1008 C22.9403,31.8418 20.7703,34.9818 14.6023,34.9818 C10.4343,34.9818 7.0653,33.3838 4.4963,31.3268 C4.0393,30.9858 3.4113,30.7568 2.7833,30.7568 C1.2983,30.7568 0.0423,32.0128 0.0423,33.4978 C0.0423,34.4118 0.4993,35.1538 1.1273,35.6668 C4.3823,38.3508 8.7793,40.0648 14.3743,40.0648 C24.6533,40.0648 28.7643,34.5258 28.7643,28.5868 C28.7643,20.4778 21.5123,18.5368 15.2883,16.8808" id="Fill-16" fill="#FFFFFF" mask="url(#mask-4)"></path></g><path d="M310.4792,30.5843 L315.6972,44.4353 L305.2992,44.4353 L310.4792,30.5843 Z M301.0572,55.8233 L302.9412,50.7413 L303.4122,49.4823 L317.5992,49.4823 L318.0732,50.7413 L319.9582,55.8233 L322.3562,62.1613 C322.6982,63.1893 323.7842,63.9893 325.0402,63.9893 C326.6392,63.9893 327.9522,62.6763 327.9522,61.0773 C327.9522,60.6773 327.8372,60.2773 327.7242,59.9923 L315.1622,28.5283 C314.4182,26.7013 312.6482,25.3313 310.4792,25.3313 C308.3662,25.3313 306.5392,26.7013 305.8542,28.5283 L293.2912,59.9923 C293.1772,60.3353 293.0622,60.7343 293.0622,61.0773 C293.0622,62.6763 294.3762,63.9893 295.9752,63.9893 C297.1742,63.9893 298.2592,63.1893 298.6592,62.1613 L301.0572,55.8233 Z" id="Fill-19" fill="#FFFFFF"></path><path d="M358.612,37.6776 C358.612,41.2716 355.357,44.1956 351.355,44.1956 L341.772,44.1956 L341.772,44.0036 L341.772,31.1606 L351.355,31.1606 C355.357,31.1606 358.612,34.0836 358.612,37.6776 M338.974,63.9896 C340.516,63.9896 341.772,62.6766 341.772,61.1336 L341.772,49.7216 L349.86,49.7216 L357.457,62.6186 C357.918,63.3956 358.798,63.9156 359.765,63.9836 C361.36,64.0946 362.543,62.7466 362.627,61.5496 C362.691,60.6386 362.494,60.1676 362.18,59.7436 L355.684,48.9966 C360.605,47.3196 364.139,42.8856 364.139,37.6776 C364.139,31.0366 358.404,25.6336 351.355,25.6336 L341.466,25.6336 L341.465,25.6166 L339.145,25.6166 C337.147,25.6166 336.062,26.7016 336.062,28.6426 L336.062,61.1336 C336.062,62.6766 337.375,63.9896 338.974,63.9896" id="Fill-21" fill="#FFFFFF"></path></g></g></g></svg>