<svg xmlns="http://www.w3.org/2000/svg" xmlns:xlink="http://www.w3.org/1999/xlink" width="100%" height="100%" viewBox="0 0 53 19" xml:space="preserve" style="fill-rule:evenodd;clip-rule:evenodd;stroke-linejoin:round;stroke-miterlimit:1.41421;"> <path d="M22.729,13.926l-1.848,0l0,-3.364c0,-1.424 1.073,-2.473 2.498,-2.473c1.123,0 1.997,0.549 1.997,1.773l0,4.064l-1.797,0l0,3.882l9.467,0l0,-3.822c-0.008,-0.02 -0.016,-0.041 -0.027,-0.061l-1.547,0l0,-5.136c0,-3.274 -2.397,-4.473 -5.346,-4.473c-2.097,0 -3.697,0.574 -5.095,2.174c-0.101,0.125 -0.226,0.274 -0.35,0.374l0,-2.679l-7.647,0l0,3.886l1.75,0l0,5.855l-1.75,0l0,3.882l9.695,0l0,-3.882Z" style="fill:#333333;fill-rule:nonzero;"></path> <path d="M33.046,13.925l-0.027,0c0.01,0.02 0.018,0.041 0.027,0.061l0,-0.061Z" style="fill:#333333;fill-rule:nonzero;"></path> <path d="M33.046,13.986c1.296,2.867 4.626,4.163 8.005,4.163c2.753,0 6.578,-0.663 7.437,-4.898l0.042,-0.452l-5.039,-0.002l-0.171,-0.001c0,1.431 -1.04,2.109 -2.219,2.109c-2.249,0 -2.424,-1.876 -2.424,-3.674l0,-0.036l0,-0.003c0,-1.798 0.175,-3.672 2.424,-3.672c1.768,0 2.067,1.535 2.131,2.988l5.231,-0.575c-0.559,-5.331 -5.805,-5.667 -7.117,-5.667c-0.189,0 -0.295,0.007 -0.295,0.007c-4.321,0 -8.566,2.121 -8.57,6.939c0.002,1.024 0.194,1.927 0.538,2.713l0.027,0l0,0.061Z" style="fill:#333333;fill-rule:nonzero;"></path> <path d="M0,4.177l2.324,0l0,9.751l-2.324,0l0,3.88l12.392,0l0,-3.883l-2.323,0l0,-9.748l2.323,0l0,-4.177l-12.392,0l0,4.177Z" style="fill:#333333;fill-rule:nonzero;"></path> <path d="M50.31,13.459c-1.22,0 -2.208,0.988 -2.208,2.207c0,1.22 0.988,2.206 2.208,2.206c1.218,0 2.206,-0.986 2.206,-2.206c0,-1.219 -0.988,-2.207 -2.206,-2.207" style="fill:#333333;fill-rule:nonzero;"></path> </svg>